<svg width="34" height="34" viewBox="0 0 34 34" fill="none" xmlns="http://www.w3.org/2000/svg">
<path d="M6.14187 10.9013V10.4013H5.64188H4.25C2.80674 10.4013 1.625 11.5691 1.625 13.0263V25.0293C1.625 26.2426 2.01477 27.4692 2.83828 28.4075C4.19455 29.9534 5.86545 29.979 7.40376 30.0026C7.46694 30.0035 7.5299 30.0045 7.5926 30.0056C12.041 30.0814 16.4993 30.0561 20.9499 30.0309C23.1716 30.0182 25.3913 30.0056 27.6069 30.0056C30.2284 30.0056 32.375 27.8827 32.375 25.2556V6.61938C32.375 5.17448 31.1949 3.99438 29.75 3.99438H9.67937C8.23448 3.99438 7.05438 5.17449 7.05438 6.61938V24.2675C7.05438 24.5194 6.85005 24.7238 6.59812 24.7238C6.3462 24.7238 6.14187 24.5194 6.14187 24.2675V10.9013ZM13.4179 11.8135H13.4189V11.3135C13.4189 10.9373 13.7242 10.632 14.1004 10.632H25.3385C25.7147 10.632 26.02 10.9373 26.02 11.3135V13.9294C26.02 14.3056 25.7147 14.6109 25.3385 14.6109H14.0994C13.7231 14.6109 13.4179 14.3056 13.4179 13.9294V11.8135ZM12.9136 19.0321H14.5297C14.7816 19.0321 14.9859 19.2365 14.9859 19.4884C14.9859 19.7403 14.7816 19.9446 14.5297 19.9446H12.9136C12.6617 19.9446 12.4574 19.7403 12.4574 19.4884C12.4574 19.2365 12.6617 19.0321 12.9136 19.0321ZM21.3191 24.3232H12.9136C12.6617 24.3232 12.4574 24.1189 12.4574 23.8669C12.4574 23.615 12.6617 23.4107 12.9136 23.4107H21.3191C21.571 23.4107 21.7753 23.615 21.7753 23.8669C21.7753 24.1189 21.571 24.3232 21.3191 24.3232ZM26.5179 24.3232H24.9018C24.6499 24.3232 24.4456 24.1189 24.4456 23.8669C24.4456 23.615 24.6499 23.4107 24.9018 23.4107H26.5179C26.7698 23.4107 26.9741 23.615 26.9741 23.8669C26.9741 24.1189 26.7698 24.3232 26.5179 24.3232ZM26.5179 19.9446H18.1135C17.8616 19.9446 17.6573 19.7403 17.6573 19.4884C17.6573 19.2365 17.8616 19.0321 18.1135 19.0321H26.5179C26.7698 19.0321 26.9741 19.2365 26.9741 19.4884C26.9741 19.7403 26.7698 19.9446 26.5179 19.9446Z" fill="url(#paint0_linear_767_93)" stroke="#FFF0A2"/>
<defs>
<linearGradient id="paint0_linear_767_93" x1="2.125" y1="17.0253" x2="31.875" y2="17.0253" gradientUnits="userSpaceOnUse">
<stop stop-color="#C39F4C"/>
<stop offset="0.24" stop-color="#DFB146"/>
<stop offset="0.4" stop-color="#F8D77A"/>
<stop offset="0.62" stop-color="#FFD961"/>
<stop offset="0.692308" stop-color="#FFD154"/>
<stop offset="0.865" stop-color="#DDB751"/>
<stop offset="0.975" stop-color="#DCB651"/>
</linearGradient>
</defs>
</svg>
