<svg width="16" height="15" viewBox="0 0 16 15" fill="none" xmlns="http://www.w3.org/2000/svg">
<path d="M15.875 5.17188C15.875 10.0938 8.57726 14.0777 8.26648 14.2422C8.18457 14.2863 8.09301 14.3093 8 14.3093C7.90699 14.3093 7.81543 14.2863 7.73352 14.2422C7.42273 14.0777 0.125 10.0938 0.125 5.17188C0.126303 4.0161 0.586011 2.90803 1.40327 2.09077C2.22053 1.27351 3.3286 0.813803 4.48438 0.8125C5.93633 0.8125 7.20758 1.43687 8 2.49227C8.79242 1.43687 10.0637 0.8125 11.5156 0.8125C12.6714 0.813803 13.7795 1.27351 14.5967 2.09077C15.414 2.90803 15.8737 4.0161 15.875 5.17188Z" fill="#F02525"/>
</svg>
