<svg width="18" height="18" viewBox="0 0 18 18" fill="none" xmlns="http://www.w3.org/2000/svg">
<g clip-path="url(#clip0_58_829)">
<path fill-rule="evenodd" clip-rule="evenodd" d="M12.1511 8.39911C12.3105 8.5585 12.4 8.77467 12.4 9.00006C12.4 9.22545 12.3105 9.44161 12.1511 9.60101L7.34267 14.4095C7.26426 14.4906 7.17046 14.5554 7.06676 14.5999C6.96306 14.6445 6.85152 14.6679 6.73866 14.6689C6.6258 14.6699 6.51387 14.6484 6.40941 14.6057C6.30494 14.5629 6.21004 14.4998 6.13023 14.42C6.05042 14.3402 5.98731 14.2453 5.94457 14.1408C5.90183 14.0364 5.88032 13.9244 5.8813 13.8116C5.88228 13.6987 5.90573 13.5872 5.95028 13.4835C5.99483 13.3798 6.05958 13.286 6.14077 13.2076L10.3483 9.00006L6.14077 4.79256C5.98593 4.63224 5.90026 4.41753 5.90219 4.19466C5.90413 3.9718 5.99352 3.75861 6.15112 3.60101C6.30872 3.44341 6.52191 3.35402 6.74478 3.35208C6.96764 3.35015 7.18235 3.43582 7.34267 3.59066L12.1511 8.39911Z" fill="white"/>
</g>
<defs>
<clipPath id="clip0_58_829">
<rect width="18" height="18" fill="white"/>
</clipPath>
</defs>
</svg>
